<svg width="64" height="64" viewBox="0 0 64 64" fill="none" xmlns="http://www.w3.org/2000/svg">
<path fill-rule="evenodd" clip-rule="evenodd" d="M19 12C18.4477 12 18 12.4477 18 13V47C18 47.5523 18.4477 48 19 48H27C27.5523 48 28 48.4477 28 49C28 49.5523 27.5523 50 27 50H19C17.3431 50 16 48.6569 16 47V13C16 11.3431 17.3431 10 19 10H48.5C50.1569 10 51.5 11.3431 51.5 13V47C51.5 48.6569 50.1569 50 48.5 50H31.5C30.9477 50 30.5 49.5523 30.5 49C30.5 48.4477 30.9477 48 31.5 48H48.5C49.0523 48 49.5 47.5523 49.5 47V13C49.5 12.4477 49.0523 12 48.5 12H19Z" fill="black"/>
<path fill-rule="evenodd" clip-rule="evenodd" d="M13 14C13 13.4477 13.4477 13 14 13H20C20.5523 13 21 13.4477 21 14C21 14.5523 20.5523 15 20 15H14C13.4477 15 13 14.5523 13 14Z" fill="black"/>
<path fill-rule="evenodd" clip-rule="evenodd" d="M13 17.5C13 16.9477 13.4477 16.5 14 16.5H20C20.5523 16.5 21 16.9477 21 17.5C21 18.0523 20.5523 18.5 20 18.5H14C13.4477 18.5 13 18.0523 13 17.5Z" fill="black"/>
<path fill-rule="evenodd" clip-rule="evenodd" d="M13 21C13 20.4477 13.4477 20 14 20H20C20.5523 20 21 20.4477 21 21C21 21.5523 20.5523 22 20 22H14C13.4477 22 13 21.5523 13 21Z" fill="black"/>
<path fill-rule="evenodd" clip-rule="evenodd" d="M13 24.5C13 23.9477 13.4477 23.5 14 23.5H20C20.5523 23.5 21 23.9477 21 24.5C21 25.0523 20.5523 25.5 20 25.5H14C13.4477 25.5 13 25.0523 13 24.5Z" fill="black"/>
<path fill-rule="evenodd" clip-rule="evenodd" d="M13 28C13 27.4477 13.4477 27 14 27H20C20.5523 27 21 27.4477 21 28C21 28.5523 20.5523 29 20 29H14C13.4477 29 13 28.5523 13 28Z" fill="black"/>
<path fill-rule="evenodd" clip-rule="evenodd" d="M13 31.5C13 30.9477 13.4477 30.5 14 30.5H20C20.5523 30.5 21 30.9477 21 31.5C21 32.0523 20.5523 32.5 20 32.5H14C13.4477 32.5 13 32.0523 13 31.5Z" fill="black"/>
<path fill-rule="evenodd" clip-rule="evenodd" d="M13 35C13 34.4477 13.4477 34 14 34H20C20.5523 34 21 34.4477 21 35C21 35.5523 20.5523 36 20 36H14C13.4477 36 13 35.5523 13 35Z" fill="black"/>
<path fill-rule="evenodd" clip-rule="evenodd" d="M13 38.5C13 37.9477 13.4477 37.5 14 37.5H20C20.5523 37.5 21 37.9477 21 38.5C21 39.0523 20.5523 39.5 20 39.5H14C13.4477 39.5 13 39.0523 13 38.5Z" fill="black"/>
<path fill-rule="evenodd" clip-rule="evenodd" d="M13 42C13 41.4477 13.4477 41 14 41H20C20.5523 41 21 41.4477 21 42C21 42.5523 20.5523 43 20 43H14C13.4477 43 13 42.5523 13 42Z" fill="black"/>
<path fill-rule="evenodd" clip-rule="evenodd" d="M13 45.5C13 44.9477 13.4477 44.5 14 44.5H20C20.5523 44.5 21 44.9477 21 45.5C21 46.0523 20.5523 46.5 20 46.5H14C13.4477 46.5 13 46.0523 13 45.5Z" fill="black"/>
<path fill-rule="evenodd" clip-rule="evenodd" d="M26 11C26 10.4477 26.4477 10 27 10H31.5C32.0523 10 32.5 10.4477 32.5 11V51C32.5 52.6569 31.1569 54 29.5 54H29C27.3431 54 26 52.6569 26 51V11ZM28 12V51C28 51.5523 28.4477 52 29 52H29.5C30.0523 52 30.5 51.5523 30.5 51V12H28Z" fill="black"/>
<path fill-rule="evenodd" clip-rule="evenodd" d="M39 40C39 39.4477 39.4477 39 40 39H44.5C45.0523 39 45.5 39.4477 45.5 40C45.5 40.5523 45.0523 41 44.5 41H40C39.4477 41 39 40.5523 39 40ZM39 43C39 42.4477 39.4477 42 40 42H42.5C43.0523 42 43.5 42.4477 43.5 43C43.5 43.5523 43.0523 44 42.5 44H40C39.4477 44 39 43.5523 39 43Z" fill="black"/>
</svg>
