<svg width="120" height="59" viewBox="0 0 120 59" fill="none" xmlns="http://www.w3.org/2000/svg">
<path d="M37.0641 18.3266H44.68V20.8034H41.0572V38.2055H37.0641V18.3266ZM49.1952 30.7429L49.8794 20.8034H50.1086L50.7931 30.7429H49.1952ZM44.7732 38.2055H48.6827L49.0526 32.9261H50.9353L51.3071 38.2055H55.2147L53.1323 18.3266H46.8556L44.7732 38.2055ZM60.9332 31.2481V34.9956C60.9332 35.5006 61.3263 35.6472 61.5555 35.6472C61.9317 35.6472 62.1937 35.3377 62.1937 34.9956V30.3681C62.1937 29.749 62.0791 29.0647 60.5895 29.0647H58.9687V26.8814H60.655C61.7847 26.8814 62.1937 26.6206 62.1937 25.3985V21.4552C62.1937 21.113 61.9317 20.8034 61.5552 20.8034C61.3263 20.8034 60.9332 20.9337 60.9332 21.4552V24.6977H56.9387V21.8789C56.9387 20.4938 57.1023 18.3266 59.9017 18.3266H63.2087C66.0081 18.3266 66.1883 20.4938 66.1883 21.8789V25.056C66.1883 27.2232 64.6656 27.8099 63.4707 27.7609V27.9565C66.1555 27.8913 66.1883 29.9443 66.1883 30.645V34.6535C66.1883 36.0546 66.0081 38.2055 63.2087 38.2055H59.9017C57.1023 38.2055 56.9387 36.0546 56.9387 34.6532V31.2481H60.9332ZM68.8078 18.3266H78.0574V38.2055H74.0629V20.8034H72.8024V38.2055H68.8078V18.3266ZM84.6713 29.2601V20.8036H85.1952C85.6207 20.8036 85.9317 21.1618 85.9317 21.7974V28.2661C85.9317 28.9017 85.6207 29.2599 85.1952 29.2599L84.6713 29.2601ZM80.6767 38.2055H84.6713V31.4433H86.963C89.7465 31.4433 89.9263 29.2926 89.9263 27.8912V21.8789C89.9263 20.4938 89.7465 18.3266 86.9633 18.3266H80.6767V38.2055ZM97.8009 34.9956C97.8009 35.3377 97.5389 35.6472 97.1624 35.6472C96.9329 35.6472 96.5404 35.5006 96.5404 34.9956V21.4552C96.5404 20.9337 96.9332 20.8034 97.1624 20.8034C97.5389 20.8034 97.8009 21.113 97.8009 21.4552V34.9956ZM92.5459 34.6535C92.5459 36.0546 92.7257 38.2055 95.5089 38.2055H98.8322C101.615 38.2055 101.795 36.0546 101.795 34.6532V21.8789C101.795 20.4938 101.616 18.3266 98.8322 18.3266H95.5089C92.726 18.3266 92.5459 20.4938 92.5459 21.8789V34.6535ZM114.794 18.3266H120V38.2055H116.006V25.7405H115.858L113.795 38.2055H110.603L108.557 25.7405H108.409V38.2055H104.415V18.3266H109.604L112.208 32.3071L114.794 18.3266ZM31.8875 10.9944C30.6647 5.66624 27.6 1.33207 27.1776 0.631287C26.5097 1.62514 24.0655 5.45447 22.823 9.69083C21.4658 14.4324 21.266 18.6362 21.7345 22.7586C22.1993 26.8973 23.9558 31.1503 23.9558 31.1503C24.8891 33.3661 26.287 35.7613 27.1974 36.9346C28.5315 35.2075 31.5979 30.0583 32.554 23.3453C33.086 19.5976 33.1089 16.3226 31.8875 10.9944ZM27.1776 35.5984C26.5769 34.4742 25.6436 32.3394 25.5552 29.0155C25.5323 25.822 26.8207 23.0682 27.1974 22.498C27.5329 23.0683 28.6428 25.4634 28.7755 28.7386C28.8655 31.9324 27.7981 34.4577 27.1776 35.5984ZM31.5323 20.0374C31.4866 22.0743 31.2427 24.2252 30.9314 25.5124C31.0427 23.2964 30.7763 20.1842 30.2653 17.7402C29.7545 15.3122 28.3088 11.2388 27.1549 9.36493C26.0891 11.1574 24.776 14.6768 24.0885 17.7238C23.3976 20.7707 23.378 24.4696 23.378 25.5776C23.1945 24.6487 22.7362 21.3086 22.8655 17.9682C22.9736 15.2146 23.6218 12.3632 23.9771 11.0596C25.3326 6.70906 26.8666 3.92276 27.1547 3.48273C27.443 3.92276 29.3746 7.36086 30.3766 10.9618C31.3735 14.5628 31.5751 18.0171 31.5323 20.0376" fill="#0079C2"/>
<path fill-rule="evenodd" clip-rule="evenodd" d="M19.9546 38.1729H29.2518H34.5185V51.7459C30.8776 55.6077 25.7009 58.0355 19.9546 58.0355C8.93371 58.0355 0 49.1388 0 38.1729C0 27.207 8.93371 18.3268 19.9546 18.3268V33.2521C17.0866 33.2521 14.2183 34.3275 12.0312 36.5111C11.5211 37.0202 11.0612 37.5767 10.6575 38.1729C7.71726 42.5071 8.17402 48.4545 12.0312 52.2834C14.2183 54.467 17.0866 55.5424 19.9546 55.5424C22.8099 55.5424 25.6649 54.467 27.8505 52.3164C27.8603 52.2999 27.8718 52.2834 27.8833 52.2834C27.8882 52.2754 27.8931 52.2712 27.8981 52.2673C27.9029 52.2631 27.9078 52.2592 27.9128 52.2511C30.1032 50.0676 30.1032 46.5317 27.9128 44.3646C25.7207 42.1814 22.1681 42.1814 19.9776 44.3646C19.9736 44.3646 19.9699 44.3688 19.9663 44.3727C19.9626 44.3769 19.9588 44.3811 19.9546 44.3811V38.1729ZM37.0641 44.0132H120V58.0355H37.0641V44.0132ZM39.218 56.2722V45.9564H41.6V48.5138C41.6 49.1546 41.4986 49.9601 41.4003 50.7443C41.3242 51.3496 41.2499 51.9419 41.2247 52.4361H41.2391L43.3468 45.9564H45.7287V56.2722H43.3468V53.8728C43.3468 53.1574 43.4917 52.2014 43.6253 51.3202C43.6983 50.8386 43.7678 50.3795 43.8087 49.9936H43.7943L41.6433 56.2722H39.218ZM52.2818 45.9564H54.7792V49.9362H56.4108V45.9564H58.9083V56.2722H56.4108V51.8901H54.7792V56.2722H52.2818V45.9564ZM69.3419 46.9478V45.9564H71.7528V46.9478H72.489C74.3946 46.9478 75.7804 48.1546 75.7804 51.0568C75.7804 54.0021 74.3946 55.1659 72.489 55.1659H71.7528V56.2722H69.3419V55.1659H68.6057C66.7146 55.1659 65.3143 54.0021 65.3143 51.0568C65.3143 48.1546 66.7146 46.9478 68.6057 46.9478H69.3419ZM72.2869 48.8011H71.7528V53.3125H72.258C73.1386 53.3125 73.4851 52.551 73.4851 51.0568C73.4851 49.5914 73.1675 48.8011 72.2869 48.8011ZM68.8511 53.3125H69.3419V48.8011H68.8223C67.9417 48.8011 67.6096 49.5914 67.6096 51.0568C67.6096 52.551 67.9705 53.3125 68.8511 53.3125ZM82.0725 48.6287C82.0725 47.0052 83.0974 45.7265 85.4505 45.7265C87.8036 45.7265 88.7997 47.034 88.7997 48.6431V53.2694C88.7997 55.3239 87.7747 56.5164 85.4361 56.5164C83.1263 56.5164 82.0725 55.3239 82.0725 53.2694V48.6287ZM86.3022 48.4707C86.3022 47.8816 85.8547 47.623 85.4361 47.623C85.003 47.623 84.5699 47.8816 84.5699 48.4707V53.7004C84.5699 54.3182 85.003 54.6199 85.4361 54.6199C85.8547 54.6199 86.3022 54.3182 86.3022 53.7004V48.4707ZM98.8752 52.2493H97.7495V56.2722H95.2517V45.9564H98.8752C100.319 45.9564 101.907 46.4736 101.907 49.1029C101.907 51.6459 100.348 52.2493 98.8752 52.2493ZM98.1537 47.8098H97.7495V50.3959H98.1967C98.8177 50.3959 99.4093 50.0942 99.4093 49.0741C99.4093 48.054 98.8752 47.8098 98.1537 47.8098ZM108.344 56.2722V45.9564H111.823L112.632 50.1373C112.746 50.6997 112.823 51.5217 112.896 52.2963C112.932 52.689 112.968 53.07 113.007 53.3987H113.036C113.078 53.059 113.12 52.6315 113.163 52.1903C113.239 51.4184 113.319 50.6034 113.411 50.1373L114.22 45.9564H117.699V56.2722H115.317V52.6516C115.317 51.6603 115.389 49.0167 115.447 48.1546H115.432L113.888 56.2722H112.155L110.611 48.1546H110.596C110.639 48.873 110.726 51.2436 110.726 52.6372V56.2722H108.344Z" fill="#0079C2"/>
</svg>
